<svg width="6" height="8" viewBox="0 0 6 8" fill="none" xmlns="http://www.w3.org/2000/svg">
<path d="M0.668861 4.46217L4.01659 7.8049C4.13987 7.93498 4.29383 8 4.47875 8C4.66367 8 4.81762 7.93491 4.9409 7.8049L5.33114 7.41974C5.45783 7.29307 5.52117 7.1391 5.52117 6.95767C5.52117 6.77967 5.45784 6.62387 5.33114 6.49041L2.83568 3.99999L5.33125 1.50445C5.4579 1.37778 5.52124 1.22381 5.52124 1.04237C5.52124 0.864387 5.45792 0.70853 5.33125 0.575119L4.94098 0.190009C4.81431 0.0633421 4.6602 1.7643e-05 4.47882 1.7643e-05C4.29737 1.7643e-05 4.14329 0.0633421 4.01666 0.190009L0.668861 3.53274C0.54214 3.66625 0.478742 3.82201 0.478742 4.00001C0.478724 4.18144 0.54214 4.3355 0.668861 4.46217Z" fill="black"/>
</svg>
